{
  "accessors": [
    {
      "bufferView": 2,
      "componentType": 5126,
      "count": 696,
      "max": [
        0.3928000032901764,
        0.12504999339580536,
        1.7828099727630615
      ],
      "min": [
        -0.3928000032901764,
        -0.1424500048160553,
        0.002240000059828162
      ],
      "type": "VEC3"
    },
    {
      "bufferView": 2,
      "byteOffset": 8352,
      "componentType": 5126,
      "count": 696,
      "max": [
        0.9994899034500122,
        0.9999403357505798,
        0.9999987483024597
      ],
      "min": [
        -0.9994899034500122,
        -0.9999098777770996,
        -0.999973475933075
      ],
      "type": "VEC3"
    },
    {
      "bufferView": 1,
      "componentType": 5125,
      "count": 4164,
      "type": "SCALAR"
    },
    {
      "bufferView": 4,
      "componentType": 5126,
      "count": 34,
      "max": [
        1.0,
        0.8219299912452698,
        0.23937000334262848,
        0.0,
        0.379830002784729,
        1.0,
        0.04738999903202057,
        0.0,
        0.7373600006103516,
        0.9974600076675415,
        1.0,
        0.0,
        1.241960048675537,
        1.1824500560760498,
        0.5331599712371826,
        1.0
      ],
      "min": [
        -0.9982900023460388,
        -0.8219299912452698,
        -0.11129999905824661,
        0.0,
        -0.45291998982429504,
        -0.9988800287246704,
        -0.9988099932670593,
        0.0,
        -0.8294399976730347,
        -0.9967899918556213,
        -0.9988700151443481,
        0.0,
        -1.119629979133606,
        -1.5445899963378906,
        -0.57573002576828,
        1.0
      ],
      "type": "MAT4"
    },
    {
      "bufferView": 0,
      "componentType": 5123,
      "count": 696,
      "type": "VEC4"
    },
    {
      "bufferView": 3,
      "componentType": 5126,
      "count": 696,
      "max": [
        1.0,
        0.49422839283943176,
        0.25854450464248657,
        0.20433492958545685
      ],
      "min": [
        0.32933497428894043,
        0.0,
        0.0,
        0.0
      ],
      "type": "VEC4"
    }
  ],
  "asset": {
    "extras": {
      "author": "muh.nurzidan (https://sketchfab.com/muh.nurzidan)",
      "license": "CC-BY-4.0 (http://creativecommons.org/licenses/by/4.0/)",
      "source": "https://sketchfab.com/3d-models/character-mannequin-male-41e10234ae604060964d137480e7f996",
      "title": "Character Mannequin Male"
    },
    "generator": "Sketchfab-12.67.0",
    "version": "2.0"
  },
  "bufferViews": [
    {
      "buffer": 0,
      "byteLength": 5568,
      "byteStride": 8,
      "name": "shortBufferViews",
      "target": 34962
    },
    {
      "buffer": 0,
      "byteLength": 16656,
      "byteOffset": 5568,
      "name": "floatBufferViews",
      "target": 34963
    },
    {
      "buffer": 0,
      "byteLength": 16704,
      "byteOffset": 22224,
      "byteStride": 12,
      "name": "floatBufferViews",
      "target": 34962
    },
    {
      "buffer": 0,
      "byteLength": 11136,
      "byteOffset": 38928,
      "byteStride": 16,
      "name": "floatBufferViews",
      "target": 34962
    },
    {
      "buffer": 0,
      "byteLength": 2176,
      "byteOffset": 50064,
      "name": "floatBufferViews"
    }
  ],
  "buffers": [
    {
      "byteLength": 52240,
      "uri": "scene.bin"
    }
  ],
  "materials": [
    {
      "doubleSided": true,
      "name": "Material",
      "pbrMetallicRoughness": {
        "baseColorFactor": [
          0.800000011920929,
          0.800000011920929,
          0.800000011920929,
          1.0
        ],
        "metallicFactor": 0.0,
        "roughnessFactor": 0.6
      }
    }
  ],
  "meshes": [
    {
      "name": "Cube",
      "primitives": [
        {
          "attributes": {
            "JOINTS_0": 4,
            "NORMAL": 1,
            "POSITION": 0,
            "WEIGHTS_0": 5
          },
          "indices": 2,
          "material": 0,
          "mode": 4
        }
      ]
    }
  ],
  "nodes": [
    {
      "children": [
        1
      ],
      "matrix": [
        1.0,
        0.0,
        0.0,
        0.0,
        0.0,
        2.220446049250313e-16,
        -1.0,
        0.0,
        0.0,
        1.0,
        2.220446049250313e-16,
        0.0,
        0.0,
        0.0,
        0.0,
        1.0
      ],
      "name": "Sketchfab_model"
    },
    {
      "children": [
        2
      ],
      "name": "Root"
    },
    {
      "children": [
        3,
        38,
        37
      ],
      "name": "Armature"
    },
    {
      "children": [
        4,
        33,
        34,
        35,
        36
      ],
      "name": "Armature_rootJoint"
    },
    {
      "children": [
        5,
        25,
        29
      ],
      "name": "Hips_Armature",
      "rotation": [
        0.7399323582649231,
        0.0,
        0.0,
        0.6726812720298767
      ],
      "scale": [
        1.0,
        1.0000027418136597,
        1.0000027418136597
      ],
      "translation": [
        0.0,
        0.0,
        0.8838099837303162
      ]
    },
    {
      "children": [
        6
      ],
      "name": "Spine_Armature",
      "rotation": [
        -0.08312768489122391,
        0.0,
        0.0,
        0.9965389966964722
      ],
      "scale": [
        1.0,
        1.0000004768371582,
        1.0000004768371582
      ],
      "translation": [
        0.0,
        0.17002999782562256,
        0.0
      ]
    },
    {
      "children": [
        7,
        9,
        17
      ],
      "name": "Chest_Armature",
      "rotation": [
        -0.03606342151761055,
        0.0,
        0.0,
        0.9993495941162109
      ],
      "scale": [
        1.0,
        1.0000011920928955,
        1.0000011920928955
      ],
      "translation": [
        0.0,
        0.22672000527381897,
        0.0
      ]
    },
    {
      "children": [
        8
      ],
      "name": "Neck_Armature",
      "rotation": [
        0.18949225544929504,
        0.0,
        0.0,
        0.9818822145462036
      ],
      "scale": [
        1.0,
        1.0000050067901611,
        1.0000050067901611
      ],
      "translation": [
        0.0,
        0.20983999967575073,
        0.0
      ]
    },
    {
      "name": "Head_Armature",
      "rotation": [
        -0.04556720703840256,
        0.0,
        0.0,
        0.9989612698554993
      ],
      "scale": [
        1.0,
        1.0000027418136597,
        1.0000027418136597
      ],
      "translation": [
        0.0,
        0.07835999876260757,
        0.0
      ]
    },
    {
      "children": [
        10
      ],
      "name": "Shoulder.L_Armature",
      "rotation": [
        -0.0651046633720398,
        -0.003907658625394106,
        0.8827714920043945,
        -0.4652533233165741
      ],
      "scale": [
        1.000004529953003,
        0.9999954700469971,
        0.9999984502792358
      ],
      "translation": [
        0.06691999733448029,
        0.1755799949169159,
        -0.00494999997317791
      ]
    },
    {
      "children": [
        11
      ],
      "name": "Upper_Arm.L_Armature",
      "rotation": [
        -0.08803003281354904,
        -0.01184336468577385,
        -0.2760435938835144,
        0.9570320844650269
      ],
      "scale": [
        1.0000005960464478,
        1.0000026226043701,
        0.9999951124191284
      ],
      "translation": [
        0.0,
        0.13756999373435974,
        0.0
      ]
    },
    {
      "children": [
        12
      ],
      "name": "Lower_Arm.L_Armature",
      "rotation": [
        0.1826542466878891,
        -0.009321893565356731,
        -0.06847582012414932,
        0.9807454347610474
      ],
      "scale": [
        1.0000016689300537,
        1.0000038146972656,
        0.9999984502792358
      ],
      "translation": [
        0.0,
        0.24690000712871552,
        0.0
      ]
    },
    {
      "children": [
        13,
        15
      ],
      "name": "Hand.L_Armature",
      "rotation": [
        -0.07377204298973083,
        0.021693581715226173,
        0.08666364848613739,
        0.9932655692100525
      ],
      "scale": [
        1.0000028610229492,
        0.9999958276748657,
        0.999995231628418
      ],
      "translation": [
        0.0,
        0.25102999806404114,
        0.0
      ]
    },
    {
      "children": [
        14
      ],
      "name": "Fingers01.L_Armature",
      "rotation": [
        0.09081192314624786,
        -0.1089743822813034,
        -0.3926081359386444,
        0.9087006449699402
      ],
      "scale": [
        1.0,
        0.9999940991401672,
        1.0000076293945313
      ],
      "translation": [
        0.0,
        0.08711999654769897,
        0.0
      ]
    },
    {
      "name": "Fingers02.L_Armature",
      "rotation": [
        0.062124475836753845,
        -0.030911576002836227,
        -0.06692194193601608,
        0.995342493057251
      ],
      "scale": [
        0.9999982118606567,
        0.9999944567680359,
        1.000001311302185
      ],
      "translation": [
        0.0,
        0.05892999842762947,
        0.0
      ]
    },
    {
      "children": [
        16
      ],
      "name": "Thumb01.L_Armature",
      "rotation": [
        0.19414034485816956,
        -0.09919893741607666,
        -0.25257086753845215,
        0.9426966905593872
      ],
      "scale": [
        1.0000059604644775,
        0.9999942779541016,
        1.000001072883606
      ],
      "translation": [
        0.015440000221133232,
        0.031060000881552696,
        0.028219999745488167
      ]
    },
    {
      "name": "Thumb02.L_Armature",
      "rotation": [
        -0.11737930029630661,
        0.0006496406858786941,
        0.0013116899644955993,
        0.9930860996246338
      ],
      "scale": [
        1.0000064373016357,
        0.9999992847442627,
        0.9999943375587463
      ],
      "translation": [
        0.0,
        0.05333999916911125,
        0.0
      ]
    },
    {
      "children": [
        18
      ],
      "name": "Shoulder.R_Armature",
      "rotation": [
        -0.108660027384758,
        0.0870845690369606,
        0.8784748911857605,
        0.45704615116119385
      ],
      "scale": [
        0.9999935626983643,
        0.999998927116394,
        1.0000032186508179
      ],
      "translation": [
        -0.06691999733448029,
        0.1755799949169159,
        -0.00494999997317791
      ]
    },
    {
      "children": [
        19
      ],
      "name": "Upper_Arm.R_Armature",
      "rotation": [
        -0.13474178314208984,
        -0.19577635824680328,
        0.2565006911754608,
        0.9368690848350525
      ],
      "scale": [
        0.9999973773956299,
        0.9999926686286926,
        1.0000056028366089
      ],
      "translation": [
        0.0,
        0.13756999373435974,
        0.0
      ]
    },
    {
      "children": [
        20
      ],
      "name": "Lower_Arm.R_Armature",
      "rotation": [
        0.17755313217639923,
        0.11859890073537827,
        0.08078517764806747,
        0.9735928177833557
      ],
      "scale": [
        1.000006079673767,
        1.0000038146972656,
        0.9999992251396179
      ],
      "translation": [
        0.0,
        0.24690000712871552,
        0.0
      ]
    },
    {
      "children": [
        21,
        23
      ],
      "name": "Hand.R_Armature",
      "rotation": [
        -0.0576595813035965,
        -0.027738528326153755,
        -0.09812352061271667,
        0.9931151866912842
      ],
      "scale": [
        1.0000001192092896,
        0.9999915361404419,
        0.9999971985816956
      ],
      "translation": [
        0.0,
        0.25102999806404114,
        0.0
      ]
    },
    {
      "children": [
        22
      ],
      "name": "Fingers01.R_Armature",
      "rotation": [
        0.11413287371397018,
        -0.09897864609956741,
        0.3864744305610657,
        0.9098430871963501
      ],
      "scale": [
        1.0000008344650269,
        0.9999934434890747,
        0.9999958872795105
      ],
      "translation": [
        0.0,
        0.08711999654769897,
        0.0
      ]
    },
    {
      "name": "Fingers02.R_Armature",
      "rotation": [
        0.0838029608130455,
        -0.09496267139911652,
        0.03626863285899162,
        0.9912838935852051
      ],
      "scale": [
        0.999996542930603,
        0.9999947547912598,
        1.000003695487976
      ],
      "translation": [
        0.0,
        0.05892999842762947,
        0.0
      ]
    },
    {
      "children": [
        24
      ],
      "name": "Thumb01.R_Armature",
      "rotation": [
        0.18536917865276337,
        -0.027231892570853233,
        0.25907599925994873,
        0.9475106000900269
      ],
      "scale": [
        0.9999905228614807,
        1.000004768371582,
        1.0000003576278687
      ],
      "translation": [
        -0.019940000027418137,
        0.031060000881552696,
        0.02525000087916851
      ]
    },
    {
      "name": "Thumb02.R_Armature",
      "rotation": [
        -0.1171167716383934,
        0.01931966468691826,
        0.007978933863341808,
        0.992898166179657
      ],
      "scale": [
        1.0000063180923462,
        1.000000238418579,
        0.9999964237213135
      ],
      "translation": [
        0.0,
        0.05333999916911125,
        0.0
      ]
    },
    {
      "children": [
        26
      ],
      "name": "Upper_Leg.L_Armature",
      "rotation": [
        0.003177007893100381,
        0.02028089202940464,
        0.9993616342544556,
        -0.029238827526569366
      ],
      "scale": [
        1.0000406503677368,
        1.0000025033950806,
        0.9999721050262451
      ],
      "translation": [
        0.08769000321626663,
        0.025310000404715538,
        0.013810000382363796
      ]
    },
    {
      "children": [
        27
      ],
      "name": "Lower_Leg.L_Armature",
      "rotation": [
        -0.01596752740442753,
        0.007651225663721561,
        -0.0006375985685735941,
        0.9998430609703064
      ],
      "scale": [
        0.9999979138374329,
        1.0000008344650269,
        0.9999968409538269
      ],
      "translation": [
        0.0,
        0.3873400092124939,
        0.0
      ]
    },
    {
      "children": [
        28
      ],
      "name": "Foot.L_Armature",
      "rotation": [
        0.5177081823348999,
        -0.0931863859295845,
        0.056868791580200195,
        0.8485637903213501
      ],
      "scale": [
        0.9999808073043823,
        1.0000271797180176,
        1.000004529953003
      ],
      "translation": [
        0.0,
        0.44936999678611755,
        0.0
      ]
    },
    {
      "name": "Toes.L_Armature",
      "rotation": [
        0.26984232664108276,
        -0.027946025133132935,
        0.007833643816411495,
        0.9624671339988708
      ],
      "scale": [
        1.000008225440979,
        1.0000014305114746,
        1.0
      ],
      "translation": [
        0.0,
        0.11987999826669693,
        0.0
      ]
    },
    {
      "children": [
        30
      ],
      "name": "Upper_Leg.R_Armature",
      "rotation": [
        -0.003177064238116145,
        0.020275942981243134,
        0.9993600249290466,
        0.02929648943245411
      ],
      "scale": [
        1.0000369548797607,
        0.9999993443489075,
        0.9999715685844421
      ],
      "translation": [
        -0.08769000321626663,
        0.025310000404715538,
        0.013810000382363796
      ]
    },
    {
      "children": [
        31
      ],
      "name": "Lower_Leg.R_Armature",
      "rotation": [
        -0.01596982590854168,
        0.00579585088416934,
        0.0005275986040942371,
        0.999855637550354
      ],
      "scale": [
        0.9999998211860657,
        1.0000015497207642,
        0.9999942779541016
      ],
      "translation": [
        0.0,
        0.3873400092124939,
        0.0
      ]
    },
    {
      "children": [
        32
      ],
      "name": "Foot.R_Armature",
      "rotation": [
        0.5184261202812195,
        0.08174043893814087,
        -0.04994416609406471,
        0.849740207195282
      ],
      "scale": [
        0.9999735355377197,
        1.000038981437683,
        1.0000003576278687
      ],
      "translation": [
        0.0,
        0.44936999678611755,
        0.0
      ]
    },
    {
      "name": "Toes.R_Armature",
      "rotation": [
        0.26984232664108276,
        0.027946025133132935,
        -0.007833643816411495,
        0.9624671339988708
      ],
      "scale": [
        1.000008225440979,
        1.0000014305114746,
        1.0
      ],
      "translation": [
        0.0,
        0.11987999826669693,
        0.0
      ]
    },
    {
      "name": "Leg_IK.L_Armature",
      "rotation": [
        0.008330299519002438,
        0.0,
        0.0,
        0.9999653100967407
      ],
      "scale": [
        1.0,
        0.9999988079071045,
        0.9999988079071045
      ],
      "translation": [
        0.13615000247955322,
        0.04383999854326248,
        0.07464999705553055
      ]
    },
    {
      "name": "Pole_Target.L_Armature",
      "rotation": [
        0.9997190833091736,
        0.0,
        0.0,
        -0.02370157465338707
      ],
      "scale": [
        1.0,
        1.0000035762786865,
        1.0000035762786865
      ],
      "translation": [
        0.11076000332832336,
        -0.27483001351356506,
        0.5207200050354004
      ]
    },
    {
      "name": "Leg_IK.R_Armature",
      "rotation": [
        0.008330299519002438,
        0.0,
        0.0,
        0.9999653100967407
      ],
      "scale": [
        1.0,
        0.9999988079071045,
        0.9999988079071045
      ],
      "translation": [
        -0.13615000247955322,
        0.04383999854326248,
        0.07464999705553055
      ]
    },
    {
      "name": "Pole_Target.R_Armature",
      "rotation": [
        0.9997190833091736,
        0.0,
        0.0,
        -0.02370157465338707
      ],
      "scale": [
        1.0,
        1.0000035762786865,
        1.0000035762786865
      ],
      "translation": [
        -0.11076000332832336,
        -0.27483001351356506,
        0.5207200050354004
      ]
    },
    {
      "name": "Cube"
    },
    {
      "mesh": 0,
      "name": "Cube_0",
      "skin": 0
    }
  ],
  "scene": 0,
  "scenes": [
    {
      "name": "Sketchfab_Scene",
      "nodes": [
        0
      ]
    }
  ],
  "skins": [
    {
      "inverseBindMatrices": 3,
      "joints": [
        3,
        4,
        5,
        6,
        7,
        8,
        9,
        10,
        11,
        12,
        13,
        14,
        15,
        16,
        17,
        18,
        19,
        20,
        21,
        22,
        23,
        24,
        25,
        26,
        27,
        28,
        29,
        30,
        31,
        32,
        33,
        34,
        35,
        36
      ],
      "skeleton": 3
    }
  ]
}
